<?xml version="1.0" standalone="no"?>
<!DOCTYPE svg PUBLIC "-//W3C//DTD SVG 20010904//EN"
 "http://www.w3.org/TR/2001/REC-SVG-20010904/DTD/svg10.dtd">
<svg version="1.0" xmlns="http://www.w3.org/2000/svg"
 width="225.000000pt" height="225.000000pt" viewBox="0 0 225.000000 225.000000"
 preserveAspectRatio="xMidYMid meet">
<metadata>
Created by potrace 1.16, written by Peter Selinger 2001-2019
</metadata>
<g transform="translate(0.000000,225.000000) scale(0.100000,-0.100000)"
fill="#13843b" stroke="none">
<path d="M1121 2144 c9 -11 5 -11 -23 -4 -18 6 -40 10 -48 10 -13 0 -13 -1 0
-10 11 -7 6 -10 -22 -10 -20 0 -38 -3 -40 -7 -2 -5 -29 -21 -60 -37 -60 -29
-128 -94 -128 -121 0 -9 -9 -28 -20 -43 -26 -35 -43 -132 -37 -206 4 -45 2
-63 -10 -74 -39 -39 13 -243 63 -250 17 -2 23 -12 28 -50 3 -26 13 -60 22 -77
21 -41 31 -155 14 -155 -7 0 -34 -19 -59 -43 -52 -48 -203 -117 -405 -183
-110 -36 -119 -42 -136 -74 -23 -45 -55 -191 -80 -355 l-19 -130 22 -17 c37
-30 197 -105 282 -133 380 -124 936 -124 1320 0 85 28 245 102 282 132 l23 18
-21 140 c-23 160 -62 327 -82 359 -10 14 -52 33 -133 60 -201 66 -353 134
-405 183 -25 24 -52 43 -59 43 -17 0 -5 112 16 152 8 16 18 51 21 78 5 40 10
50 27 52 34 5 68 80 74 163 3 52 1 75 -9 86 -10 10 -14 47 -14 139 0 110 -3
131 -24 172 -22 47 -93 118 -116 118 -7 0 -20 9 -31 21 -21 23 -80 57 -70 40
9 -14 5 -14 -30 3 -16 8 -50 16 -77 19 -39 4 -45 2 -36 -9z m-88 -1242 l47
-34 -30 -38 c-16 -21 -30 -41 -30 -44 0 -4 16 -41 35 -84 l35 -77 -40 -214
c-22 -118 -40 -223 -40 -235 -1 -37 -16 2 -59 155 -77 273 -119 526 -106 641
l7 58 66 -47 c37 -26 88 -62 115 -81z m372 -37 c-3 -49 -13 -130 -21 -180 -16
-93 -89 -388 -100 -407 -4 -6 -33 71 -66 170 l-59 181 36 70 c19 39 35 76 35
83 0 8 -14 30 -30 50 l-30 37 67 47 c38 26 88 62 113 79 l45 32 8 -36 c5 -20
6 -76 2 -126z"/>
</g>
</svg>
